<?xml version="1.0" encoding="UTF-8" standalone="no"?>
<svg
   xmlns:dc="http://purl.org/dc/elements/1.1/"
   xmlns:cc="http://creativecommons.org/ns#"
   xmlns:rdf="http://www.w3.org/1999/02/22-rdf-syntax-ns#"
   xmlns:svg="http://www.w3.org/2000/svg"
   xmlns="http://www.w3.org/2000/svg"
   id="svg72"
   xml:space="preserve"
   enable-background="new 0 0 890.409 200.739"
   viewBox="0 0 113.4785 26"
   height="26"
   width="113.47851"
   y="0px"
   x="0px"
   version="1.1"><metadata
     id="metadata78"><rdf:RDF><cc:Work
         rdf:about=""><dc:format>image/svg+xml</dc:format><dc:type
           rdf:resource="http://purl.org/dc/dcmitype/StillImage" /><dc:title></dc:title></cc:Work></rdf:RDF></metadata><defs
     id="defs76" /><g
     transform="translate(-2.4245909,-176.29222)"
     id="Lager_1" /><g
     transform="scale(0.12952142)"
     id="Isoleringsläge"><g
       id="g27"><g
         id="g7"><path
           style="fill:#e63137"
           id="path3"
           d="m 16.864,180.25 c 0,0 -15.543,-3.107 -15.543,-22.203 V 90.145 h 81.712 81.71 v 67.903 c 0,19.096 -15.541,22.203 -15.541,22.203 l -66.17,19.113 z" /><path
           id="path5"
           d="M 83.032,200.739 82.665,200.634 16.533,181.53 C 15.344,181.254 0,177.319 0,158.047 V 88.823 h 166.064 v 69.224 c 0,19.27 -15.341,23.207 -16.532,23.482 z M 2.642,91.465 v 66.582 c 0,17.807 14.336,20.879 14.48,20.908 l 0.107,0.025 65.802,19.008 65.856,-19.023 0.054,-0.01 c 0.589,-0.121 14.48,-3.176 14.48,-20.908 V 91.465 Z" /></g><g
         id="g13"><rect
           style="fill:#ffffff"
           id="rect9"
           height="88.832001"
           width="163.422"
           y="1.321"
           x="1.321" /><path
           id="path11"
           d="M 166.064,91.474 H 0 V 0 H 166.064 Z M 2.642,88.832 H 163.423 V 2.642 H 2.642 Z" /></g><g
         id="g17"><path
           id="path15"
           d="m 44.697,14.594 h 5.202 v 23.367 c 4.613,-0.512 13.171,-0.875 13.171,-0.875 1.428,2.585 4.029,2.255 4.029,2.255 l 71.552,-1.427 v 16.261 c 0,0 -68.151,-2.043 -71.619,-2.043 -3.471,0 -4.287,2.857 -4.287,2.857 l -12.846,-0.477 -0.005,4.939 c -0.002,2.121 -3.017,1.292 -3.017,4.526 0,2.858 2.801,2.253 2.798,4.232 l -0.01,7.507 c 0,0.642 -0.51,1.163 -1.154,1.163 H 31.379 c -0.641,0 -1.161,-0.522 -1.161,-1.163 v -7.52 c 0,-1.871 2.285,-1.361 2.285,-4.219 0,-3.234 -1.861,-2.649 -1.861,-4.533 v -5.101 c 0,-2.796 -3.099,-0.643 -3.099,-3.309 v -10.42 c 0,-1.879 3.099,-1.281 3.099,-3.075 v -5.798 l 13.667,-16.76 z" /></g><g
         id="g25"><path
           style="fill:#ffffff"
           id="path19"
           d="m 61.968,128.407 c 0.083,-1.156 0.083,-2.316 10e-4,-3.473 l -4.107,-0.787 c -0.118,-0.93 -0.301,-1.854 -0.548,-2.766 l 3.497,-2.299 c -0.362,-1.094 -0.805,-2.162 -1.327,-3.207 l -4.098,0.846 c -0.461,-0.809 -0.987,-1.59 -1.57,-2.34 l 2.348,-3.461 c -0.376,-0.436 -0.766,-0.863 -1.179,-1.277 -0.413,-0.412 -0.841,-0.801 -1.276,-1.178 l -3.46,2.348 c -0.751,-0.584 -1.532,-1.109 -2.341,-1.57 l 0.846,-4.098 c -1.044,-0.521 -2.114,-0.965 -3.208,-1.326 l -2.299,3.496 c -0.913,-0.248 -1.835,-0.43 -2.765,-0.549 l -0.787,-4.105 c -1.157,-0.084 -2.317,-0.084 -3.474,0 l -0.785,4.105 c -0.932,0.117 -1.855,0.301 -2.767,0.551 l -2.3,-3.498 c -1.092,0.361 -2.162,0.805 -3.205,1.328 l 0.846,4.098 c -0.81,0.461 -1.59,0.984 -2.342,1.568 l -3.462,-2.348 c -0.434,0.375 -0.861,0.766 -1.275,1.178 -0.414,0.414 -0.802,0.842 -1.178,1.275 l 2.348,3.463 c -0.584,0.752 -1.107,1.533 -1.57,2.342 l -4.097,-0.846 c -0.524,1.041 -0.966,2.113 -1.328,3.205 l 3.498,2.299 c -0.249,0.912 -0.433,1.836 -0.549,2.768 l -4.107,0.785 c -0.083,1.156 -0.083,2.316 0,3.475 l 4.109,0.785 c 0.116,0.932 0.299,1.854 0.548,2.764 l -3.499,2.301 c 0.362,1.094 0.805,2.164 1.328,3.207 l 4.098,-0.846 c 0.463,0.807 0.986,1.59 1.57,2.342 l -2.348,3.461 c 0.376,0.434 0.765,0.863 1.178,1.275 0.413,0.414 0.842,0.803 1.277,1.178 l 3.46,-2.348 c 0.751,0.584 1.534,1.107 2.341,1.57 l -0.846,4.098 c 1.043,0.523 2.113,0.967 3.206,1.328 l 2.302,-3.498 c 0.911,0.248 1.833,0.432 2.765,0.547 l 0.785,4.109 c 1.157,0.082 2.317,0.082 3.473,-0.002 l 0.786,-4.105 c 0.931,-0.117 1.855,-0.301 2.767,-0.549 l 2.3,3.498 c 1.091,-0.363 2.164,-0.805 3.206,-1.328 l -0.846,-4.098 c 0.808,-0.463 1.59,-0.986 2.342,-1.57 l 3.462,2.348 c 0.433,-0.375 0.861,-0.764 1.274,-1.178 0.414,-0.414 0.802,-0.842 1.179,-1.275 l -2.348,-3.461 c 0.583,-0.752 1.107,-1.533 1.569,-2.342 l 4.098,0.846 c 0.523,-1.043 0.965,-2.115 1.327,-3.205 l -3.497,-2.301 c 0.249,-0.912 0.432,-1.834 0.549,-2.768 z M 39.807,110.709 c 4.519,0.52 8.468,2.908 11.05,6.377 l -8.174,4.721 c -0.795,-0.773 -1.779,-1.35 -2.876,-1.66 z m -3.699,0 v 9.438 c -1.097,0.311 -2.081,0.887 -2.876,1.66 l -8.174,-4.721 c 2.582,-3.468 6.531,-5.857 11.05,-6.377 z M 21.887,126.67 c 0,-2.268 0.472,-4.424 1.32,-6.381 l 8.178,4.723 c -0.134,0.531 -0.213,1.086 -0.213,1.658 0,0.574 0.079,1.127 0.213,1.66 l -8.178,4.721 c -0.848,-1.957 -1.32,-4.113 -1.32,-6.381 z m 14.221,15.961 c -4.519,-0.518 -8.468,-2.906 -11.05,-6.377 l 8.174,-4.719 c 0.795,0.771 1.779,1.348 2.876,1.66 z m 1.873,-13.32 c -0.008,0 -0.016,0.002 -0.024,0.002 -0.008,0 -0.016,-0.002 -0.024,-0.002 -1.439,-0.014 -2.603,-1.176 -2.616,-2.615 0,-0.01 -0.002,-0.018 -0.002,-0.025 0,-0.007 0.002,-0.016 0.002,-0.023 0.014,-1.439 1.177,-2.604 2.616,-2.615 0.008,0 0.016,-0.004 0.024,-0.004 0.008,0 0.016,0.004 0.024,0.004 1.439,0.012 2.603,1.176 2.615,2.615 0,0.008 0.003,0.016 0.003,0.023 0,0.007 -0.003,0.016 -0.003,0.023 -0.012,1.439 -1.175,2.603 -2.615,2.617 z m 1.826,13.32 v -9.436 c 1.097,-0.313 2.081,-0.889 2.876,-1.66 l 8.174,4.719 c -2.582,3.471 -6.531,5.86 -11.05,6.377 z m 12.901,-9.58 -8.178,-4.721 c 0.134,-0.533 0.213,-1.086 0.213,-1.66 0,-0.572 -0.079,-1.127 -0.213,-1.658 l 8.178,-4.723 c 0.848,1.957 1.32,4.113 1.32,6.381 0,2.268 -0.472,4.424 -1.32,6.381 z" /><path
           style="fill:#ffffff"
           id="path21"
           d="m 152.117,128.407 c 0.083,-1.156 0.083,-2.316 0.001,-3.473 l -4.107,-0.787 c -0.118,-0.93 -0.302,-1.854 -0.549,-2.766 l 3.497,-2.299 c -0.362,-1.094 -0.805,-2.162 -1.327,-3.207 l -4.098,0.846 c -0.461,-0.809 -0.987,-1.59 -1.57,-2.34 l 2.349,-3.461 c -0.377,-0.436 -0.766,-0.863 -1.179,-1.277 -0.412,-0.412 -0.841,-0.801 -1.276,-1.178 l -3.461,2.348 c -0.751,-0.584 -1.532,-1.109 -2.34,-1.57 l 0.845,-4.098 c -1.044,-0.521 -2.113,-0.965 -3.207,-1.326 l -2.299,3.496 c -0.913,-0.248 -1.835,-0.43 -2.765,-0.549 l -0.787,-4.105 c -1.156,-0.084 -2.317,-0.084 -3.474,0 l -0.785,4.105 c -0.932,0.117 -1.855,0.301 -2.767,0.551 l -2.301,-3.498 c -1.091,0.361 -2.162,0.805 -3.205,1.328 l 0.847,4.098 c -0.811,0.461 -1.59,0.984 -2.342,1.568 l -3.463,-2.348 c -0.434,0.375 -0.86,0.766 -1.274,1.178 -0.414,0.414 -0.803,0.842 -1.179,1.275 l 2.349,3.463 c -0.584,0.752 -1.107,1.533 -1.57,2.342 l -4.097,-0.846 c -0.524,1.041 -0.967,2.113 -1.328,3.205 l 3.498,2.299 c -0.249,0.912 -0.434,1.836 -0.55,2.768 l -4.107,0.785 c -0.082,1.156 -0.082,2.316 0,3.475 l 4.108,0.785 c 0.116,0.932 0.3,1.854 0.549,2.764 l -3.5,2.301 c 0.362,1.094 0.806,2.164 1.329,3.207 l 4.097,-0.846 c 0.464,0.807 0.987,1.59 1.571,2.342 l -2.349,3.461 c 0.377,0.434 0.766,0.863 1.179,1.275 0.413,0.414 0.842,0.803 1.276,1.178 l 3.461,-2.348 c 0.75,0.584 1.534,1.107 2.341,1.57 l -0.847,4.098 c 1.044,0.523 2.113,0.967 3.206,1.328 l 2.303,-3.5 c 0.91,0.25 1.833,0.434 2.765,0.549 l 0.785,4.109 c 1.156,0.082 2.317,0.082 3.473,-0.002 l 0.786,-4.105 c 0.932,-0.117 1.855,-0.301 2.767,-0.551 l 2.3,3.5 c 1.092,-0.363 2.164,-0.805 3.206,-1.328 l -0.846,-4.098 c 0.808,-0.463 1.59,-0.986 2.341,-1.57 l 3.463,2.348 c 0.434,-0.375 0.86,-0.764 1.274,-1.178 0.414,-0.414 0.802,-0.842 1.179,-1.275 l -2.349,-3.461 c 0.584,-0.752 1.108,-1.533 1.57,-2.342 l 4.098,0.846 c 0.523,-1.043 0.965,-2.115 1.326,-3.205 l -3.497,-2.301 c 0.249,-0.912 0.433,-1.834 0.55,-2.768 z m -22.16,-17.698 c 4.519,0.52 8.468,2.908 11.05,6.377 l -8.175,4.721 c -0.795,-0.773 -1.778,-1.35 -2.875,-1.66 z m -3.699,0 v 9.438 c -1.097,0.311 -2.081,0.887 -2.876,1.66 l -8.175,-4.721 c 2.582,-3.468 6.531,-5.857 11.051,-6.377 z m -14.221,15.961 c 0,-2.268 0.472,-4.424 1.319,-6.381 l 8.178,4.723 c -0.134,0.531 -0.213,1.086 -0.213,1.658 0,0.574 0.079,1.127 0.213,1.66 l -8.178,4.721 c -0.847,-1.957 -1.319,-4.113 -1.319,-6.381 z m 14.221,15.961 c -4.52,-0.518 -8.469,-2.906 -11.051,-6.377 l 8.175,-4.719 c 0.795,0.771 1.779,1.348 2.876,1.66 z m 1.873,-13.32 c -0.008,0 -0.016,0.002 -0.023,0.002 -0.009,0 -0.016,-0.002 -0.024,-0.002 -1.439,-0.014 -2.603,-1.176 -2.616,-2.615 0,-0.01 -0.002,-0.018 -0.002,-0.025 0,-0.007 0.002,-0.016 0.002,-0.023 0.014,-1.439 1.177,-2.604 2.616,-2.615 0.009,0 0.016,-0.004 0.024,-0.004 0.008,0 0.016,0.004 0.023,0.004 1.439,0.012 2.603,1.176 2.615,2.615 0,0.008 0.003,0.016 0.003,0.023 0,0.007 -0.003,0.016 -0.003,0.023 -0.013,1.439 -1.176,2.603 -2.615,2.617 z m 1.826,13.32 v -9.436 c 1.097,-0.313 2.08,-0.889 2.875,-1.66 l 8.175,4.719 c -2.582,3.471 -6.531,5.86 -11.05,6.377 z m 12.9,-9.58 -8.178,-4.721 c 0.134,-0.533 0.213,-1.086 0.213,-1.66 0,-0.572 -0.079,-1.127 -0.213,-1.658 l 8.178,-4.723 c 0.848,1.957 1.32,4.113 1.32,6.381 0,2.268 -0.472,4.424 -1.32,6.381 z" /><path
           style="fill:#ffffff"
           id="path23"
           d="m 107.042,160.969 c 0.084,-1.154 0.084,-2.314 0.001,-3.473 l -4.106,-0.785 c -0.119,-0.93 -0.302,-1.854 -0.549,-2.766 l 3.496,-2.301 c -0.361,-1.092 -0.805,-2.162 -1.326,-3.205 l -4.098,0.846 c -0.461,-0.809 -0.987,-1.592 -1.57,-2.342 l 2.348,-3.461 c -0.376,-0.434 -0.765,-0.863 -1.179,-1.275 -0.412,-0.414 -0.841,-0.803 -1.275,-1.18 l -3.461,2.35 c -0.752,-0.584 -1.532,-1.109 -2.341,-1.57 l 0.846,-4.098 c -1.044,-0.523 -2.114,-0.967 -3.207,-1.328 l -2.299,3.498 c -0.913,-0.248 -1.836,-0.432 -2.766,-0.549 l -0.786,-4.107 c -1.157,-0.082 -2.317,-0.082 -3.474,0 l -0.785,4.107 c -0.932,0.117 -1.855,0.301 -2.767,0.549 l -2.3,-3.496 c -1.092,0.359 -2.162,0.803 -3.205,1.326 l 0.846,4.098 c -0.81,0.463 -1.59,0.986 -2.342,1.57 l -3.462,-2.35 c -0.434,0.377 -0.861,0.766 -1.275,1.18 -0.414,0.414 -0.802,0.84 -1.178,1.273 l 2.348,3.463 c -0.583,0.752 -1.107,1.535 -1.57,2.342 l -4.097,-0.846 c -0.524,1.043 -0.966,2.113 -1.328,3.205 l 3.498,2.301 c -0.249,0.912 -0.433,1.836 -0.549,2.766 l -4.107,0.785 c -0.083,1.158 -0.083,2.318 0,3.475 l 4.109,0.785 c 0.116,0.932 0.299,1.854 0.548,2.766 l -3.499,2.301 c 0.362,1.094 0.805,2.164 1.328,3.207 l 4.098,-0.846 c 0.463,0.807 0.987,1.588 1.57,2.34 l -2.348,3.461 c 0.376,0.436 0.766,0.863 1.178,1.275 0.413,0.414 0.842,0.803 1.277,1.18 l 3.46,-2.35 c 0.751,0.584 1.534,1.109 2.341,1.572 l -0.846,4.098 c 1.043,0.523 2.113,0.965 3.206,1.326 l 2.302,-3.498 c 0.911,0.248 1.833,0.432 2.765,0.549 l 0.785,4.107 c 1.157,0.082 2.317,0.082 3.473,0 l 0.786,-4.107 c 0.931,-0.115 1.854,-0.299 2.767,-0.549 l 2.299,3.498 c 1.092,-0.361 2.164,-0.803 3.206,-1.328 l -0.846,-4.098 c 0.808,-0.461 1.59,-0.984 2.342,-1.57 l 3.462,2.35 c 0.434,-0.377 0.861,-0.766 1.274,-1.18 0.414,-0.414 0.803,-0.84 1.179,-1.273 l -2.348,-3.463 c 0.584,-0.752 1.107,-1.531 1.57,-2.342 l 4.097,0.846 c 0.523,-1.043 0.966,-2.113 1.327,-3.205 l -3.497,-2.301 c 0.248,-0.91 0.432,-1.834 0.55,-2.766 z m -22.16,-17.695 c 4.52,0.518 8.469,2.906 11.05,6.377 l -8.174,4.719 c -0.796,-0.773 -1.779,-1.35 -2.876,-1.66 z m -3.699,0 v 9.436 c -1.097,0.311 -2.081,0.887 -2.876,1.66 l -8.174,-4.719 c 2.581,-3.471 6.531,-5.859 11.05,-6.377 z m -14.221,15.961 c 0,-2.268 0.472,-4.426 1.32,-6.381 l 8.178,4.721 c -0.134,0.533 -0.213,1.086 -0.213,1.66 0,0.572 0.079,1.127 0.213,1.658 l -8.178,4.723 c -0.848,-1.957 -1.32,-4.114 -1.32,-6.381 z m 14.221,15.961 c -4.519,-0.52 -8.468,-2.908 -11.05,-6.379 l 8.174,-4.719 c 0.795,0.773 1.779,1.35 2.876,1.66 z m 1.873,-13.322 c -0.008,0 -0.016,0.002 -0.024,0.002 -0.008,0 -0.016,-0.002 -0.024,-0.002 -1.439,-0.014 -2.603,-1.176 -2.616,-2.615 0,-0.008 -0.002,-0.016 -0.002,-0.023 0,-0.01 0.002,-0.018 0.002,-0.025 0.014,-1.439 1.177,-2.602 2.616,-2.615 0.008,0 0.016,-0.002 0.024,-0.002 0.008,0 0.016,0.002 0.024,0.002 1.44,0.014 2.603,1.176 2.615,2.615 0,0.01 0.003,0.016 0.003,0.025 0,0.008 -0.003,0.016 -0.003,0.023 -0.012,1.439 -1.175,2.601 -2.615,2.615 z m 1.826,13.322 v -9.438 c 1.097,-0.311 2.08,-0.887 2.876,-1.66 l 8.174,4.719 c -2.581,3.471 -6.531,5.859 -11.05,6.379 z m 12.901,-9.58 -8.179,-4.723 c 0.134,-0.531 0.214,-1.086 0.214,-1.658 0,-0.574 -0.08,-1.127 -0.214,-1.66 l 8.179,-4.721 c 0.847,1.955 1.319,4.113 1.319,6.381 0,2.268 -0.472,4.424 -1.319,6.381 z" /></g></g><g
       id="g69"><path
         style="fill:#ffffff"
         id="path29"
         d="M 243.087,52.604 H 220.864 V 73.795 H 213.02 V 25.014 h 7.844 V 45.93 h 22.223 V 25.014 h 7.912 v 48.781 h -7.912 z" /><path
         style="fill:#ffffff"
         id="path31"
         d="m 293.863,61.204 h -20.021 l -4.885,12.591 h -8.05 l 20.228,-48.781 h 5.917 l 20.228,48.781 h -8.462 z m -17.407,-6.743 h 14.793 l -7.362,-18.989 z" /><path
         style="fill:#ffffff"
         id="path33"
         d="M 317.187,73.795 V 25.014 h 7.912 v 42.107 h 17.545 v 6.674 z" /><path
         style="fill:#ffffff"
         id="path35"
         d="M 353.515,73.795 V 25.014 h 7.912 v 42.107 h 17.545 v 6.674 z" /><path
         style="fill:#ffffff"
         id="path37"
         d="m 395.14,60.516 c 0,0 2.477,7.224 9.219,7.224 4.129,0 6.262,-2.477 6.262,-6.261 0,-11.421 -19.815,-7.155 -19.815,-23.737 0,-8.669 5.986,-13.554 13.829,-13.554 11.215,0 13.967,10.114 13.967,10.114 l -6.192,3.027 c 0,0 -2.133,-6.261 -7.774,-6.261 -3.439,0 -5.985,2.133 -5.985,6.261 0,10.871 19.884,7.431 19.884,23.393 0,10.114 -6.949,13.898 -13.967,13.898 -12.729,0 -15.687,-10.871 -15.687,-10.871 z" /><path
         style="fill:#ffffff"
         id="path39"
         d="m 428.784,25.014 h 32.131 v 6.605 h -12.04 v 42.176 h -7.912 V 31.619 h -12.179 z" /><path
         style="fill:#ffffff"
         id="path41"
         d="m 496.829,61.204 h -20.021 l -4.885,12.591 h -8.05 l 20.228,-48.781 h 5.917 l 20.228,48.781 h -8.462 z m -17.407,-6.743 h 14.793 l -7.362,-18.989 z" /><path
         style="fill:#ffffff"
         id="path43"
         d="m 551.595,52.604 h -22.223 v 21.191 h -7.844 V 25.014 h 7.844 V 45.93 h 22.223 V 25.014 h 7.912 v 48.781 h -7.912 z" /><path
         style="fill:#ffffff"
         id="path45"
         d="M 602.371,61.204 H 582.35 l -4.885,12.591 h -8.05 l 20.228,-48.781 h 5.917 l 20.228,48.781 h -8.462 z m -17.407,-6.743 h 14.793 l -7.362,-18.989 z" /><path
         style="fill:#ffffff"
         id="path47"
         d="m 643.239,54.118 c -2.133,-6.674 -3.99,-13.967 -4.128,-14.724 -0.068,0.413 -0.963,8.05 -1.927,14.792 l -2.89,19.608 h -7.774 l 7.706,-48.712 h 7.361 l 7.362,22.842 c 2.064,6.399 4.06,14.242 4.266,14.999 0.068,-0.413 1.995,-8.325 4.06,-14.999 l 7.155,-22.842 h 7.293 l 7.774,48.712 h -7.912 l -2.89,-19.54 c -0.963,-6.468 -1.857,-14.242 -1.927,-14.861 -0.138,0.413 -2.063,8.119 -4.196,14.792 l -6.262,19.608 h -6.742 z" /><path
         style="fill:#ffffff"
         id="path49"
         d="m 706.744,54.118 c -2.133,-6.674 -3.99,-13.967 -4.128,-14.724 -0.068,0.413 -0.963,8.05 -1.927,14.792 l -2.89,19.608 h -7.774 l 7.706,-48.712 h 7.361 l 7.362,22.842 c 2.064,6.399 4.06,14.242 4.266,14.999 0.069,-0.413 1.995,-8.325 4.06,-14.999 l 7.155,-22.842 h 7.293 l 7.774,48.712 h -7.912 l -2.89,-19.54 c -0.963,-6.468 -1.857,-14.242 -1.927,-14.861 -0.138,0.413 -2.063,8.119 -4.196,14.792 l -6.262,19.608 h -6.742 z" /><path
         style="fill:#ffffff"
         id="path51"
         d="m 785.249,61.204 h -20.021 l -4.885,12.591 h -8.05 l 20.228,-48.781 h 5.917 l 20.228,48.781 h -8.462 z m -17.407,-6.743 h 14.793 l -7.362,-18.989 z" /><path
         style="fill:#ffffff"
         id="path53"
         d="m 824.672,52.466 15.274,21.329 h -9.771 L 816.553,52.948 v 20.847 h -7.981 V 25.014 h 11.077 c 12.247,0 16.994,5.642 16.994,13.761 10e-4,6.467 -3.44,12.178 -11.971,13.691 z m -8.188,-6.123 h 3.027 c 7.431,0 9.22,-3.302 9.22,-7.568 0,-3.922 -1.583,-7.293 -9.357,-7.293 h -2.89 z" /><path
         style="fill:#ffffff"
         id="path55"
         d="m 852.675,60.516 c 0,0 2.477,7.224 9.219,7.224 4.129,0 6.262,-2.477 6.262,-6.261 0,-11.421 -19.815,-7.155 -19.815,-23.737 0,-8.669 5.986,-13.554 13.829,-13.554 11.215,0 13.967,10.114 13.967,10.114 l -6.192,3.027 c 0,0 -2.133,-6.261 -7.774,-6.261 -3.439,0 -5.985,2.133 -5.985,6.261 0,10.871 19.884,7.431 19.884,23.393 0,10.114 -6.949,13.898 -13.967,13.898 -12.729,0 -15.687,-10.871 -15.687,-10.871 z" /><path
         style="fill:#ffffff"
         id="path57"
         d="m 220.933,100.711 v 23.599 l 13.554,-23.599 h 8.738 l -14.311,24.15 16.512,24.562 h -9.494 L 220.933,126.03 v 23.461 h -7.912 V 100.71 h 7.912 z" /><path
         style="fill:#ffffff"
         id="path59"
         d="m 276.388,99.886 c 14.311,0 25.388,10.251 25.388,25.181 0,14.861 -11.353,25.25 -25.388,25.25 -14.104,0 -25.457,-9.839 -25.457,-25.25 0,-14.586 11.352,-25.181 25.457,-25.181 z m 0,43.345 c 9.839,0 17.338,-7.293 17.338,-18.164 0,-10.871 -7.499,-18.095 -17.338,-18.095 -9.839,0 -17.407,7.224 -17.407,18.095 0,10.871 7.568,18.164 17.407,18.164 z" /><path
         style="fill:#ffffff"
         id="path61"
         d="m 327.163,129.815 c -2.133,-6.674 -3.99,-13.967 -4.128,-14.724 -0.068,0.413 -0.963,8.05 -1.927,14.792 l -2.89,19.608 h -7.774 l 7.706,-48.712 h 7.361 l 7.362,22.842 c 2.064,6.399 4.06,14.242 4.266,14.999 0.068,-0.413 1.995,-8.325 4.06,-14.999 l 7.155,-22.842 h 7.293 l 7.774,48.712 h -7.912 l -2.89,-19.54 c -0.963,-6.468 -1.857,-14.242 -1.927,-14.861 -0.138,0.413 -2.063,8.119 -4.196,14.792 l -6.262,19.608 h -6.742 z" /><path
         style="fill:#ffffff"
         id="path63"
         d="m 392.045,129.815 c -2.133,-6.674 -3.99,-13.967 -4.128,-14.724 -0.068,0.413 -0.963,8.05 -1.927,14.792 l -2.89,19.608 h -7.774 l 7.706,-48.712 h 7.361 l 7.362,22.842 c 2.064,6.399 4.06,14.242 4.266,14.999 0.069,-0.413 1.995,-8.325 4.06,-14.999 l 7.155,-22.842 h 7.293 l 7.774,48.712 h -7.912 l -2.89,-19.54 c -0.963,-6.468 -1.857,-14.242 -1.927,-14.861 -0.138,0.413 -2.063,8.119 -4.196,14.792 l -6.262,19.608 h -6.742 z" /><path
         style="fill:#ffffff"
         id="path65"
         d="m 439.933,100.711 h 7.912 v 26.764 c 0,9.632 2.478,15.824 10.252,15.824 7.774,0 10.251,-6.192 10.251,-15.824 v -26.764 h 7.913 v 27.521 c 0,13.485 -5.023,22.017 -18.164,22.017 -13.142,0 -18.164,-8.326 -18.164,-21.948 z" /><path
         style="fill:#ffffff"
         id="path67"
         d="m 529.236,100.711 v 48.781 h -8.118 l -16.856,-25.938 c -4.128,-6.398 -6.536,-11.008 -6.536,-11.008 0,0 0.481,6.743 0.481,14.449 v 22.498 h -7.912 v -48.781 h 7.981 l 16.03,24.7 c 4.473,6.88 7.5,12.797 7.5,12.797 0,0 -0.482,-7.774 -0.482,-16.168 v -21.329 h 7.912 z" /></g></g></svg>