<?xml version="1.0" encoding="UTF-8"?>
<!-- Generator: Adobe Illustrator 18.1.1, SVG Export Plug-In . SVG Version: 6.00 Build 0)  -->
<svg version="1.1" id="hallstaLogo" xmlns="http://www.w3.org/2000/svg" xmlns:xlink="http://www.w3.org/1999/xlink" x="0px" y="0px" viewBox="-193.3 -10 469.7 105.8" enable-background="new -193.3 -10 469.7 105.8" xml:space="preserve">
<g>
	<path fill="#EE3F43" d="M-184.4,85.1c0,0-8.2-1.6-8.2-11.7V37.7h86.2v35.8c0,10.1-8.2,11.7-8.2,11.7l-34.9,10.1L-184.4,85.1"/>
	<path d="M-149.6,95.9l-35-10.1c-0.7-0.1-8.8-2.3-8.8-12.3V36.9h87.5v36.5c0,10.2-8.1,12.2-8.8,12.3L-149.6,95.9 M-191.9,38.3v35.1   c0,9.4,7.6,11,7.7,11l0,0l34.6,9.9l34.8-10.1l0,0c0.3,0,7.7-1.7,7.7-11v-35H-191.9z"/>
	<polyline fill="#FFFFFF" points="-192.7,-9.3 -106.5,-9.3 -106.5,37.7 -192.7,37.7 -192.7,-9.3  "/>
	<path d="M-105.8,38.3h-87.5V-10h87.5V38.3z M-191.9,36.9h84.8V-8.5h-84.8V36.9z"/>
	<path d="M-169.7-2.3h2.8v12.3c2.4-0.3,6.9-0.4,6.9-0.4c0.8,1.3,2.1,1.2,2.1,1.2l37.8-0.8v8.6c0,0-35.9-1.1-37.8-1.1   s-2.3,1.5-2.3,1.5l-6.8-0.3v2.7c0,1.1-1.6,0.7-1.6,2.4c0,1.5,1.5,1.2,1.5,2.3v4c0,0.4-0.3,0.7-0.7,0.7h-9c-0.4,0-0.7-0.3-0.7-0.7   v-4c0-0.9,1.2-0.7,1.2-2.3c0-1.7-0.9-1.5-0.9-2.4v-2.7c0-1.5-1.6-0.4-1.6-1.7v-5.4c0-0.9,1.6-0.7,1.6-1.6V7l7.2-9L-169.7-2.3"/>
	<path fill="#FFFFFF" d="M-160.7,57.8c0-0.7,0-1.2,0-1.9l-2.1-0.4c0-0.5-0.1-0.9-0.3-1.5l1.9-1.2c-0.1-0.5-0.4-1.2-0.7-1.7l-2.3,0.4   c-0.3-0.4-0.5-0.8-0.8-1.2l1.2-1.9c-0.1-0.3-0.4-0.4-0.7-0.7c-0.3-0.3-0.4-0.4-0.7-0.7l-1.7,1.3c-0.4-0.3-0.8-0.5-1.2-0.8l0.4-2.1   c-0.5-0.3-1.1-0.5-1.7-0.7l-1.2,1.9c-0.5-0.1-0.9-0.3-1.5-0.3l-0.4-2.1c-0.7,0-1.2,0-1.9,0l-0.4,2.1c-0.5,0-0.9,0.1-1.5,0.3   l-1.2-1.9c-0.5,0.1-1.2,0.4-1.7,0.7l0.4,2.1c-0.4,0.3-0.8,0.5-1.2,0.8l-1.9-1.2c-0.3,0.1-0.4,0.4-0.7,0.7s-0.4,0.4-0.7,0.7l1.2,1.9   c-0.3,0.4-0.5,0.8-0.8,1.2l-2.1-0.4c-0.3,0.5-0.5,1.1-0.7,1.7l1.9,1.2c-0.1,0.5-0.3,0.9-0.3,1.5l-2.1,0.4c0,0.7,0,1.2,0,1.9   l2.1,0.4c0,0.5,0.1,0.9,0.3,1.5l-1.9,1.1c0.1,0.5,0.4,1.2,0.7,1.7l2.1-0.4c0.3,0.4,0.5,0.8,0.8,1.2l-1.2,1.9   c0.3,0.1,0.5,0.4,0.7,0.5c0.3,0.3,0.4,0.4,0.7,0.7l1.9-1.2c0.4,0.3,0.8,0.5,1.2,0.8l-0.4,2.1c0.5,0.3,1.1,0.5,1.7,0.7l1.2-1.9   c0.5,0.1,0.9,0.3,1.5,0.3l0.4,2.1c0.7,0,1.2,0,1.9,0l0.4-2.1c0.5,0,0.9-0.1,1.5-0.3l1.2,1.9c0.5-0.1,1.2-0.4,1.7-0.7L-168,66   c0.4-0.3,0.8-0.5,1.2-0.8l1.9,1.2c0.3-0.1,0.4-0.4,0.7-0.7s0.4-0.4,0.7-0.7l-1.2-1.9c0.3-0.4,0.5-0.8,0.8-1.2l2.1,0.4   c0.3-0.5,0.5-1.1,0.7-1.7l-1.9-1.2c0.1-0.5,0.3-0.9,0.3-1.5L-160.7,57.8 M-172.4,48.4c2.4,0.3,4.5,1.6,5.8,3.3l-4.2,2.5   c-0.4-0.4-0.9-0.7-1.5-0.9v-4.9H-172.4z M-174.2,48.4v5c-0.5,0.1-1.1,0.5-1.5,0.9l-4.4-2.5C-178.7,50-176.6,48.7-174.2,48.4z    M-181.8,56.9c0-1.2,0.3-2.4,0.7-3.3l4.4,2.5c-0.1,0.3-0.1,0.5-0.1,0.9c0,0.3,0,0.5,0.1,0.9l-4.4,2.5   C-181.5,59.1-181.8,58.1-181.8,56.9z M-174.2,65.2c-2.4-0.3-4.5-1.6-5.8-3.3l4.4-2.5c0.4,0.4,0.9,0.7,1.5,0.9   C-174.2,60.3-174.2,65.2-174.2,65.2z M-173.3,58.2L-173.3,58.2L-173.3,58.2c-0.8,0-1.5-0.7-1.5-1.3l0,0l0,0c0-0.8,0.7-1.3,1.3-1.3   l0,0l0,0c0.8,0,1.3,0.7,1.3,1.3l0,0l0,0C-172,57.7-172.5,58.2-173.3,58.2z M-172.4,65.2v-4.9c0.5-0.1,1.1-0.5,1.5-0.9l4.4,2.5   C-167.9,63.8-170,65-172.4,65.2z M-165.5,60.2l-4.4-2.5c0.1-0.3,0.1-0.5,0.1-0.9c0-0.3,0-0.5-0.1-0.9l4.4-2.5   c0.4,1.1,0.7,2.1,0.7,3.3C-164.8,58.1-165.1,59.1-165.5,60.2z"/>
	<path fill="#FFFFFF" d="M-113.1,57.8c0-0.7,0-1.2,0-1.9l-2.1-0.4c0-0.5-0.1-0.9-0.3-1.5l1.9-1.2c-0.1-0.5-0.4-1.2-0.7-1.7l-2.1,0.4   c-0.3-0.4-0.5-0.8-0.8-1.2l1.2-1.9c-0.1-0.3-0.4-0.4-0.7-0.7s-0.4-0.4-0.7-0.7l-1.9,1.2c-0.4-0.3-0.8-0.5-1.2-0.8l0.4-2.1   c-0.5-0.3-1.1-0.5-1.7-0.7l-1.2,1.9c-0.5-0.1-0.9-0.3-1.5-0.3l-0.4-2.1c-0.7,0-1.2,0-1.9,0l-0.4,2.1c-0.5,0-0.9,0.1-1.5,0.3   l-1.2-1.9c-0.5,0.1-1.2,0.4-1.7,0.7l0.4,2.1c-0.4,0.3-0.8,0.5-1.2,0.8l-1.9-1.2c-0.3,0.1-0.4,0.4-0.7,0.7s-0.4,0.4-0.7,0.7l1.2,1.9   c-0.3,0.4-0.5,0.8-0.8,1.2l-2.1-0.4c-0.3,0.5-0.5,1.1-0.7,1.7l1.9,1.2c-0.1,0.5-0.3,0.9-0.3,1.5l-2.1,0.4c0,0.7,0,1.2,0,1.9   l2.1,0.4c0,0.5,0.1,0.9,0.3,1.5l-1.9,1.2c0.1,0.5,0.4,1.2,0.7,1.7l2.1-0.4c0.3,0.4,0.5,0.8,0.8,1.2l-1.2,1.9   c0.1,0.3,0.4,0.4,0.7,0.7s0.4,0.4,0.7,0.7l1.9-1.2c0.4,0.3,0.8,0.5,1.2,0.8l-0.4,2.1c0.5,0.3,1.1,0.5,1.7,0.7l1.2-1.9   c0.5,0.1,0.9,0.3,1.5,0.3l0.4,2.1c0.7,0,1.2,0,1.9,0l0.4-2.1c0.5,0,0.9-0.1,1.5-0.3l1.2,1.9c0.5-0.1,1.2-0.4,1.7-0.7l-0.4-2.1   c0.4-0.3,0.8-0.5,1.2-0.8l1.9,1.2c0.3-0.1,0.4-0.4,0.7-0.7s0.4-0.4,0.7-0.7l-1.2-1.9c0.3-0.4,0.5-0.8,0.8-1.2l2.1,0.4   c0.3-0.5,0.5-1.1,0.7-1.7l-1.9-1.2c0.1-0.5,0.3-0.9,0.3-1.5L-113.1,57.8 M-124.8,48.4c2.4,0.3,4.5,1.6,5.8,3.3l-4.4,2.5   c-0.4-0.4-0.9-0.7-1.5-0.9C-124.8,53.3-124.8,48.4-124.8,48.4z M-126.7,48.4v5c-0.5,0.1-1.1,0.5-1.5,0.9l-4.4-2.5   C-131.3,50-129.1,48.7-126.7,48.4z M-134.2,56.9c0-1.2,0.3-2.4,0.7-3.3l4.4,2.5c-0.1,0.3-0.1,0.5-0.1,0.9c0,0.3,0,0.5,0.1,0.9   l-4.4,2.5C-134,59.1-134.2,58.1-134.2,56.9z M-126.7,65.2c-2.4-0.3-4.5-1.6-5.8-3.3l4.4-2.5c0.4,0.4,0.9,0.7,1.5,0.9   C-126.7,60.3-126.7,65.2-126.7,65.2z M-125.7,58.2L-125.7,58.2L-125.7,58.2c-0.8,0-1.5-0.7-1.5-1.3l0,0l0,0c0-0.8,0.7-1.3,1.3-1.3   l0,0l0,0c0.8,0,1.3,0.7,1.3,1.3l0,0l0,0C-124.4,57.7-125,58.2-125.7,58.2z M-124.8,65.2v-4.9c0.5-0.1,1.1-0.5,1.5-0.9l4.4,2.5   C-120.3,63.8-122.4,65-124.8,65.2z M-118,60.2l-4.2-2.5c0.1-0.3,0.1-0.5,0.1-0.9c0-0.3,0-0.5-0.1-0.9l4.4-2.5   c0.4,1.1,0.7,2.1,0.7,3.3C-117.3,58.1-117.5,59.1-118,60.2z"/>
	<path fill="#FFFFFF" d="M-136.8,74.9c0-0.7,0-1.2,0-1.9l-2.1-0.4c0-0.5-0.1-0.9-0.3-1.5l1.9-1.2c-0.1-0.5-0.4-1.2-0.7-1.7l-2.3,0.5   c-0.3-0.4-0.5-0.8-0.8-1.2l1.2-1.9c-0.1-0.3-0.4-0.4-0.7-0.7s-0.4-0.4-0.7-0.7l-1.9,1.2c-0.4-0.3-0.8-0.5-1.2-0.8l0.4-2.1   c-0.5-0.3-1.1-0.5-1.7-0.7l-1.2,1.9c-0.5-0.1-0.9-0.3-1.5-0.3l-0.4-2.1c-0.7,0-1.2,0-1.9,0l-0.4,2c-0.5,0-0.9,0.1-1.5,0.3l-1.2-1.9   c-0.5,0.1-1.2,0.4-1.7,0.7l0.4,2.1c-0.4,0.3-0.8,0.5-1.2,0.8l-1.9-1.2c-0.3,0.1-0.4,0.4-0.7,0.7s-0.4,0.4-0.7,0.7l1.2,1.9   c-0.3,0.4-0.5,0.8-0.8,1.2l-2-0.4c-0.3,0.5-0.5,1.1-0.7,1.7l1.9,1.2c-0.1,0.5-0.3,0.9-0.3,1.5l-2.1,0.4c0,0.7,0,1.2,0,1.9l2.1,0.4   c0,0.5,0.1,0.9,0.3,1.5l-1.9,1.2c0.1,0.5,0.4,1.2,0.7,1.7l2.1-0.4c0.3,0.4,0.5,0.8,0.8,1.2l-1.2,1.9c0.1,0.3,0.4,0.4,0.7,0.7   c0.3,0.3,0.4,0.4,0.7,0.7l1.9-1.2c0.4,0.3,0.8,0.5,1.2,0.8l-0.4,2.1c0.5,0.3,1.1,0.5,1.7,0.7l1.2-1.9c0.5,0.1,0.9,0.3,1.5,0.3   l0.4,2.1c0.7,0,1.2,0,1.9,0l0.4-2.1c0.5,0,0.9-0.1,1.5-0.3l1.2,1.9c0.5-0.1,1.2-0.4,1.7-0.7l-0.5-2.1c0.4-0.3,0.8-0.5,1.2-0.8   l1.9,1.2c0.3-0.1,0.4-0.4,0.7-0.7c0.3-0.3,0.4-0.4,0.7-0.7l-1.2-1.9c0.3-0.4,0.5-0.8,0.8-1.2l2.1,0.4c0.3-0.5,0.5-1.1,0.7-1.7   l-1.9-1.2c0.1-0.5,0.3-0.9,0.3-1.5L-136.8,74.9 M-148.5,65.6c2.4,0.3,4.5,1.6,5.8,3.3l-4.4,2.5c-0.4-0.4-0.9-0.7-1.5-0.9   C-148.5,70.5-148.5,65.6-148.5,65.6z M-150.5,65.6v5c-0.5,0.1-1.1,0.5-1.5,0.9l-4.4-2.5C-155,67.1-152.9,65.9-150.5,65.6z    M-158.1,74c0-1.2,0.3-2.4,0.7-3.3l4.4,2.5c-0.1,0.3-0.1,0.5-0.1,0.9c0,0.3,0,0.5,0.1,0.9l-4.4,2.5   C-157.8,76.4-158.1,75.2-158.1,74z M-150.5,82.5c-2.4-0.3-4.5-1.6-5.8-3.3l4.4-2.5c0.4,0.4,0.9,0.7,1.5,0.9V82.5z M-149.6,75.5   L-149.6,75.5L-149.6,75.5c-0.8,0-1.5-0.7-1.5-1.3l0,0l0,0c0-0.8,0.7-1.3,1.3-1.3l0,0l0,0c0.8,0,1.3,0.7,1.3,1.3l0,0l0,0   C-148.1,74.8-148.8,75.5-149.6,75.5z M-148.5,82.5v-5c0.5-0.1,1.1-0.5,1.5-0.9l4.4,2.5C-144.1,80.9-146.1,82.2-148.5,82.5z    M-141.7,77.4l-4.4-2.5c0.1-0.3,0.1-0.5,0.1-0.9c0-0.3,0-0.5-0.1-0.9l4.4-2.5c0.4,1.1,0.7,2.1,0.7,3.3   C-141.1,75.2-141.3,76.4-141.7,77.4z"/>
	<path d="M253.1,23.7c0,0,1.6,5.7,8.2,5.7c3.7,0,7.4-2,7.4-7.3c0-8.4-10.5-6.6-10.5-12.3c0-2.1,1.3-3.3,3.2-3.3   c2.9,0,4.1,3.3,4.1,3.3l3.3-1.6c0,0-1.5-5.3-7.4-5.3c-4.1,0-7.3,2.5-7.3,7.2c0,8.8,10.5,6.5,10.5,12.5c0,2-1.1,3.3-3.3,3.3   c-3.6,0-4.9-3.8-4.9-3.8L253.1,23.7z M237.3,6.6h1.5c4.1,0,4.9,1.7,4.9,3.8c0,2.3-0.9,4-4.9,4h-1.6V6.6H237.3z M247.9,10.5   c0-4.2-2.5-7.3-9-7.3h-5.8v25.7h4.2v-11l7.2,11h5.2l-8.1-11.3C246.2,17,247.9,13.9,247.9,10.5z M215.6,8.7l3.8,10.1h-7.8L215.6,8.7   z M223.5,28.9h4.5L217.4,3.2h-3.2l-10.6,25.7h4.2l2.5-6.6H221L223.5,28.9z M182.8,28.9h3.6l3.3-10.3c1.1-3.6,2.1-7.6,2.3-7.8   c0,0.3,0.5,4.4,1.1,7.8l1.5,10.3h4.1l-4.1-25.6h-3.8l-3.7,12.1c-1.1,3.6-2.1,7.7-2.1,8c-0.1-0.4-1.2-4.5-2.3-8l-3.8-12.1h-3.8   L170.8,29h4.1l1.5-10.3c0.5-3.6,0.9-7.6,1.1-7.8c0.1,0.4,1.1,4.2,2.1,7.8L182.8,28.9z M149.3,28.9h3.6l3.3-10.3   c1.1-3.6,2.1-7.6,2.3-7.8c0,0.3,0.5,4.4,1.1,7.8l1.5,10.3h4.1l-4.1-25.6h-3.8l-3.7,12.1c-1.1,3.6-2.1,7.7-2.1,8   c-0.1-0.4-1.2-4.5-2.3-8l-3.8-12.1h-3.8L137.2,29h4.1l1.5-10.3c0.5-3.6,0.9-7.6,1.1-7.8c0.1,0.4,1.1,4.2,2.1,7.8L149.3,28.9z    M119.2,8.7l3.8,10.1h-7.8L119.2,8.7z M127,28.9h4.5L120.9,3.2h-3.2l-10.6,25.7h4.2l2.5-6.6h10.6L127,28.9z M97.7,28.9h4.1V3.2   h-4.1v11H86v-11h-4.1v25.7H86V17.8h11.7V28.9z M63.5,8.7l3.8,10.1h-7.8L63.5,8.7z M71.4,28.9h4.5L65.3,3.2h-3.2L51.5,28.9h4.2   l2.5-6.6h10.6L71.4,28.9z M32.8,6.7h6.4V29h4.1V6.7h6.4V3.2h-17v3.6H32.8z M11.9,23.7c0,0,1.6,5.7,8.2,5.7c3.7,0,7.4-2,7.4-7.3   c0-8.4-10.5-6.6-10.5-12.3c0-2.1,1.3-3.3,3.2-3.3c2.9,0,4.1,3.3,4.1,3.3l3.3-1.6c0,0-1.5-5.3-7.4-5.3c-4.1,0-7.3,2.5-7.3,7.2   c0,8.8,10.5,6.5,10.5,12.5c0,2-1.1,3.3-3.3,3.3c-3.6,0-4.9-3.8-4.9-3.8L11.9,23.7z M6.6,28.9v-3.6h-9.3V3.2h-4.1v25.7H6.6z    M-12.5,28.9v-3.6h-9.3V3.2h-4.1v25.7H-12.5z M-43.6,8.7l3.8,10.1h-7.8L-43.6,8.7z M-35.8,28.9h4.5L-41.9,3.2H-45l-10.6,25.7h4.2   l2.5-6.6h10.6L-35.8,28.9z M-65.1,28.9h4.1V3.2h-4.1v11h-11.7v-11h-4.1v25.7h4.1V17.8h11.7V28.9z"/>
	<path d="M81.6,43.2v11.3c0,4.4,0.3,8.5,0.3,8.5s-1.6-3.2-4-6.8l-8.5-13h-4.1V69h4.1V57.1c0-4.1-0.3-7.6-0.3-7.6s1.3,2.4,3.4,5.8   l8.9,13.7h4.2V43.2H81.6z M38.8,57.7c0,7.2,2.7,11.5,9.5,11.5s9.5-4.5,9.5-11.7V43.2h-4.1v14.1c0,5-1.3,8.4-5.4,8.4   s-5.4-3.3-5.4-8.4V43.2h-4.1V57.7z M16.8,69h3.6l3.3-10.3c1.1-3.6,2.1-7.6,2.3-7.8c0,0.3,0.5,4.4,1.1,7.8L28.4,69h4.1l-4.1-25.7   h-3.8l-3.7,12.1c-1.1,3.6-2.1,7.7-2.1,8c-0.1-0.4-1.2-4.5-2.3-8l-3.8-12.1H8.8L4.7,69h4.1l1.5-10.3c0.5-3.6,0.9-7.6,1.1-7.8   c0.1,0.4,1.1,4.2,2.1,7.8L16.8,69z M-17.5,69h3.6l3.3-10.3c1.1-3.6,2.1-7.6,2.3-7.8c0,0.3,0.5,4.4,1.1,7.8L-5.8,69h4.1l-4.1-25.7   h-3.8l-3.7,12.1c-1.1,3.6-2.1,7.7-2.1,8c-0.1-0.4-1.2-4.5-2.3-8l-3.8-12.1h-3.8L-29.5,69h4.1l1.5-10.3c0.5-3.6,0.9-7.6,1.1-7.8   c0.1,0.4,1.1,4.2,2.1,7.8L-17.5,69z M-56.7,56c0-5.7,4-9.5,9.2-9.5s9.2,3.8,9.2,9.5s-4,9.5-9.2,9.5S-56.7,61.8-56.7,56z M-61,56   c0,8.1,6,13.3,13.4,13.3s13.4-5.4,13.4-13.3S-40,42.7-47.6,42.7C-55,42.7-61,48.3-61,56z M-81,43.2V69h4.1V56.6l8,12.3h5l-8.8-13   l7.6-12.7h-4.6l-7.2,12.5V43.2H-81z"/>
	<rect x="-193.3" y="-10" fill="none" width="469.7" height="105.8"/>
</g>
</svg>