<?xml version="1.0" encoding="UTF-8" standalone="no"?>
<svg
   id="Lager_1"
   viewBox="0 0 32 32.000001"
   version="1.1"
   sodipodi:docname="lovtrad.svg"
   width="32"
   height="32"
   inkscape:version="1.3 (0e150ed6c4, 2023-07-21)"
   xmlns:inkscape="http://www.inkscape.org/namespaces/inkscape"
   xmlns:sodipodi="http://sodipodi.sourceforge.net/DTD/sodipodi-0.dtd"
   xmlns="http://www.w3.org/2000/svg"
   xmlns:svg="http://www.w3.org/2000/svg">
  <defs
     id="defs1" />
  <sodipodi:namedview
     id="namedview1"
     pagecolor="#ffffff"
     bordercolor="#666666"
     borderopacity="1.0"
     inkscape:showpageshadow="2"
     inkscape:pageopacity="0.0"
     inkscape:pagecheckerboard="0"
     inkscape:deskcolor="#d1d1d1"
     inkscape:zoom="22.627417"
     inkscape:cx="19.069786"
     inkscape:cy="20.837553"
     inkscape:window-width="2560"
     inkscape:window-height="1377"
     inkscape:window-x="2552"
     inkscape:window-y="-8"
     inkscape:window-maximized="1"
     inkscape:current-layer="Lager_1" />
  <ellipse
     cx="16.56078"
     cy="16.036345"
     rx="5.6905532"
     ry="5.686667"
     fill="none"
     stroke="#1c1a1c"
     stroke-miterlimit="10"
     stroke-width="1.1539"
     id="ellipse1"
     style="stroke-width:1.154;stroke-dasharray:none" />
  <path
     d="m 19.199543,30.10214 c 3.395976,1.369443 5.713499,0.255321 7.0673,-1.996136 0.894885,-1.508706 -0.688373,-4.897496 1.399693,-6.382993 0.986668,-0.765959 1.720933,-0.510639 2.638764,-2.135401 1.101397,-1.949714 1.445584,-5.52419 0.688374,-7.984544 C 30.557704,10.187202 30.007005,9.398032 28.515529,8.7017055 27.138782,8.1678553 26.037385,7.3090524 25.555523,6.1252976 24.821259,4.3380594 25.601415,2.2026582 22.251332,1.2510119 20.713964,0.71716158 19.429,0.43863097 18.419387,0.64752893 15.826513,1.2045901 16.377212,3.6417329 12.315809,2.8061412 11.053792,2.8061412 7.979057,0.29936569 6.9694427,0.92605955 6.1204489,1.4599099 3.1145519,3.5721003 2.9768772,4.8951206 c -0.2524036,2.2514557 1.6291503,3.1334693 1.6291503,4.572544 0,1.2069664 -0.3671324,1.3462314 -0.8948854,1.7408164 -7.2049746,5.454558 0.1957551,10.097822 0.2524036,10.143156 2.7764393,1.555129 1.4914757,5.500979 4.6121016,8.100599 6.5166017,4.711809 7.3931957,-0.661883 10.6144647,0.644494 z"
     fill="none"
     stroke="#1c1a1c"
     stroke-miterlimit="10"
     stroke-width="1.1539"
     id="path1"
     sodipodi:nodetypes="cccsccccccccsccccc"
     style="stroke-width:1.154;stroke-dasharray:none" />
</svg>
